<?xml version="1.0" encoding="UTF-8" standalone="no"?>
<!-- Created with Inkscape (http://www.inkscape.org/) -->

<svg
   width="80mm"
   height="80.000282mm"
   viewBox="0 0 80 80.000282"
   version="1.1"
   id="svg5"
   inkscape:version="1.3.1 (9b9bdc1480, 2023-11-25, custom)"
   sodipodi:docname="vectarine4.svg"
   xml:space="preserve"
   inkscape:export-filename="../../../../../home/clement/Images/v3d_draft.png"
   inkscape:export-xdpi="81.279999"
   inkscape:export-ydpi="81.279999"
   xmlns:inkscape="http://www.inkscape.org/namespaces/inkscape"
   xmlns:sodipodi="http://sodipodi.sourceforge.net/DTD/sodipodi-0.dtd"
   xmlns="http://www.w3.org/2000/svg"
   xmlns:svg="http://www.w3.org/2000/svg"><sodipodi:namedview
     id="namedview7"
     pagecolor="#ffffff"
     bordercolor="#000000"
     borderopacity="0.25"
     inkscape:showpageshadow="2"
     inkscape:pageopacity="0.0"
     inkscape:pagecheckerboard="0"
     inkscape:deskcolor="#d1d1d1"
     inkscape:document-units="mm"
     showgrid="false"
     inkscape:zoom="1"
     inkscape:cx="125"
     inkscape:cy="136"
     inkscape:window-width="1294"
     inkscape:window-height="704"
     inkscape:window-x="72"
     inkscape:window-y="27"
     inkscape:window-maximized="1"
     inkscape:current-layer="layer1"
     showguides="true"><sodipodi:guide
       position="-63.984321,61.665591"
       orientation="1,0"
       id="guide1"
       inkscape:locked="false" /></sodipodi:namedview><defs
     id="defs2"><inkscape:path-effect
       effect="spiro"
       id="path-effect4"
       is_visible="true"
       lpeversion="1" /><inkscape:path-effect
       effect="spiro"
       id="path-effect3"
       is_visible="true"
       lpeversion="1" /><inkscape:path-effect
       effect="spiro"
       id="path-effect2"
       is_visible="true"
       lpeversion="1" /><inkscape:path-effect
       effect="spiro"
       id="path-effect1"
       is_visible="true"
       lpeversion="1" /><inkscape:path-effect
       effect="spiro"
       id="path-effect3999"
       is_visible="true"
       lpeversion="1" /><inkscape:path-effect
       effect="spiro"
       id="path-effect3994"
       is_visible="true"
       lpeversion="1" /><inkscape:path-effect
       effect="spiro"
       id="path-effect3920"
       is_visible="true"
       lpeversion="1" /><inkscape:path-effect
       effect="spiro"
       id="path-effect3846"
       is_visible="true"
       lpeversion="1" /><inkscape:path-effect
       effect="spiro"
       id="path-effect3103"
       is_visible="true"
       lpeversion="1" /><inkscape:path-effect
       effect="spiro"
       id="path-effect2597"
       is_visible="true"
       lpeversion="1" /><inkscape:path-effect
       effect="spiro"
       id="path-effect2538"
       is_visible="true"
       lpeversion="1" /><inkscape:path-effect
       effect="spiro"
       id="path-effect2475"
       is_visible="true"
       lpeversion="1" /><inkscape:path-effect
       effect="spiro"
       id="path-effect2011"
       is_visible="true"
       lpeversion="1" /><inkscape:path-effect
       effect="spiro"
       id="path-effect1746"
       is_visible="true"
       lpeversion="1" /><inkscape:path-effect
       effect="spiro"
       id="path-effect71252"
       is_visible="true"
       lpeversion="1" /><inkscape:path-effect
       effect="spiro"
       id="path-effect70654"
       is_visible="true"
       lpeversion="1" /><inkscape:path-effect
       effect="spiro"
       id="path-effect60452"
       is_visible="true"
       lpeversion="1" /><inkscape:path-effect
       effect="spiro"
       id="path-effect6167"
       is_visible="true"
       lpeversion="1" /><inkscape:path-effect
       effect="spiro"
       id="path-effect5953"
       is_visible="true"
       lpeversion="1" /><inkscape:path-effect
       effect="spiro"
       id="path-effect5175"
       is_visible="true"
       lpeversion="1" /><inkscape:path-effect
       effect="spiro"
       id="path-effect5115"
       is_visible="true"
       lpeversion="1" /><inkscape:path-effect
       effect="spiro"
       id="path-effect367"
       is_visible="true"
       lpeversion="1" /><inkscape:path-effect
       effect="spiro"
       id="path-effect11958"
       is_visible="true"
       lpeversion="1" /><inkscape:path-effect
       effect="spiro"
       id="path-effect11862"
       is_visible="true"
       lpeversion="1" /><inkscape:path-effect
       effect="spiro"
       id="path-effect11696"
       is_visible="true"
       lpeversion="1" /><linearGradient
       id="linearGradient7246"
       inkscape:swatch="gradient"><stop
         style="stop-color:#f68e38;stop-opacity:1;"
         offset="0"
         id="stop7242" /><stop
         style="stop-color:#ad4e4e;stop-opacity:1;"
         offset="0.82299674"
         id="stop7244" /></linearGradient><inkscape:path-effect
       effect="spiro"
       id="path-effect6321"
       is_visible="true"
       lpeversion="1" /><inkscape:path-effect
       effect="spiro"
       id="path-effect6157"
       is_visible="true"
       lpeversion="1" /><inkscape:path-effect
       effect="spiro"
       id="path-effect5841"
       is_visible="true"
       lpeversion="1" /><inkscape:path-effect
       effect="bspline"
       id="path-effect5625"
       is_visible="true"
       lpeversion="1"
       weight="33.333333"
       steps="2"
       helper_size="0"
       apply_no_weight="true"
       apply_with_weight="true"
       only_selected="false" /><rect
       x="170.00638"
       y="90.337601"
       width="171.15149"
       height="132.55699"
       id="rect4300" /><rect
       x="302.08487"
       y="134.34483"
       width="130.18686"
       height="100.88417"
       id="rect4294" /><rect
       x="66.732841"
       y="159.67445"
       width="165.24739"
       height="110.69028"
       id="rect4288" /><rect
       x="279.47144"
       y="155.24454"
       width="166.70042"
       height="120.95101"
       id="rect4226" /><inkscape:path-effect
       effect="spiro"
       id="path-effect2011-7"
       is_visible="true"
       lpeversion="1" /><inkscape:path-effect
       effect="spiro"
       id="path-effect2597-3"
       is_visible="true"
       lpeversion="1" /><inkscape:path-effect
       effect="spiro"
       id="path-effect71252-1"
       is_visible="true"
       lpeversion="1" /><inkscape:path-effect
       effect="spiro"
       id="path-effect70654-2"
       is_visible="true"
       lpeversion="1" /><inkscape:path-effect
       effect="spiro"
       id="path-effect60452-7"
       is_visible="true"
       lpeversion="1" /><inkscape:path-effect
       effect="spiro"
       id="path-effect6167-0"
       is_visible="true"
       lpeversion="1" /><inkscape:path-effect
       effect="spiro"
       id="path-effect5953-9"
       is_visible="true"
       lpeversion="1" /><inkscape:path-effect
       effect="spiro"
       id="path-effect5175-3"
       is_visible="true"
       lpeversion="1" /><inkscape:path-effect
       effect="spiro"
       id="path-effect5115-6"
       is_visible="true"
       lpeversion="1" /><inkscape:path-effect
       effect="spiro"
       id="path-effect367-0"
       is_visible="true"
       lpeversion="1" /><inkscape:path-effect
       effect="spiro"
       id="path-effect11958-6"
       is_visible="true"
       lpeversion="1" /><inkscape:path-effect
       effect="spiro"
       id="path-effect11862-2"
       is_visible="true"
       lpeversion="1" /><inkscape:path-effect
       effect="spiro"
       id="path-effect11696-6"
       is_visible="true"
       lpeversion="1" /><inkscape:path-effect
       effect="spiro"
       id="path-effect6321-7"
       is_visible="true"
       lpeversion="1" /><inkscape:path-effect
       effect="spiro"
       id="path-effect6157-9"
       is_visible="true"
       lpeversion="1" /><inkscape:path-effect
       effect="spiro"
       id="path-effect5841-2"
       is_visible="true"
       lpeversion="1" /><inkscape:path-effect
       effect="bspline"
       id="path-effect5625-0"
       is_visible="true"
       lpeversion="1"
       weight="33.333333"
       steps="2"
       helper_size="0"
       apply_no_weight="true"
       apply_with_weight="true"
       only_selected="false" /><rect
       x="170.00638"
       y="90.337601"
       width="171.15149"
       height="132.55699"
       id="rect4300-2" /><rect
       x="302.08487"
       y="134.34483"
       width="130.18686"
       height="100.88417"
       id="rect4294-3" /><rect
       x="66.732841"
       y="159.67445"
       width="165.24739"
       height="110.69028"
       id="rect4288-7" /><rect
       x="279.47144"
       y="155.24454"
       width="166.70042"
       height="120.95101"
       id="rect4226-5" /><inkscape:path-effect
       effect="spiro"
       id="path-effect60452-2"
       is_visible="true"
       lpeversion="1" /><inkscape:path-effect
       effect="spiro"
       id="path-effect60452-2-7"
       is_visible="true"
       lpeversion="1" /><inkscape:path-effect
       effect="spiro"
       id="path-effect3994-3"
       is_visible="true"
       lpeversion="1" /><inkscape:path-effect
       effect="spiro"
       id="path-effect2-7"
       is_visible="true"
       lpeversion="1" /><inkscape:path-effect
       effect="spiro"
       id="path-effect3999-5"
       is_visible="true"
       lpeversion="1" /><inkscape:path-effect
       effect="spiro"
       id="path-effect3999-9"
       is_visible="true"
       lpeversion="1" /><inkscape:path-effect
       effect="spiro"
       id="path-effect3999-2"
       is_visible="true"
       lpeversion="1" /></defs><g
     inkscape:label="body"
     inkscape:groupmode="layer"
     id="layer1"
     style="display:inline"
     transform="translate(-61.341813,-109.78789)"><path
       style="display:none;fill:#991629;fill-opacity:1;fill-rule:evenodd;stroke:none;stroke-width:4;stroke-linejoin:round;stroke-opacity:1"
       d="m 119.25493,115.70878 c -8.8794,-4.63595 -19.611813,-5.58971 -29.169572,-2.5922 -11.072141,3.47245 -20.297697,12.18573 -24.733182,22.90845 -2.254297,5.44973 -3.327474,11.39836 -3.000406,17.28686 0.327068,5.8885 2.064421,11.70779 5.121293,16.75129 2.482183,4.09533 5.813277,7.65853 9.653661,10.51937 7.838094,5.83888 17.856485,8.67602 27.592246,7.81395 -3.93601,-5.90661 -7.284653,-12.20441 -9.980544,-18.77042 -2.186433,-5.32519 -3.961782,-10.93162 -4.010059,-16.68799 -0.04441,-5.29574 1.446597,-10.66197 4.588069,-14.92553 3.141473,-4.26356 7.988004,-7.33592 13.250364,-7.9312 1.54279,-0.17452 3.10103,-0.14187 4.65075,-0.23693 1.54972,-0.0951 3.11874,-0.32615 4.52184,-0.99097 1.18996,-0.56384 2.23279,-1.43486 2.99954,-2.50537 0.76676,-1.07052 1.25578,-2.33821 1.4066,-3.64632 0.15082,-1.30812 -0.0369,-2.65383 -0.5399,-3.87075 -0.50302,-1.21692 -1.32027,-2.3024 -2.3507,-3.12224 z"
       id="path3992"
       inkscape:label="main-light"
       sodipodi:nodetypes="ssssscasaas"
       inkscape:original-d="m 119.25493,115.70878 c -3.09719,-5.15843 -22.585856,-2.4893 -29.169572,-2.5922 -6.583715,-0.1029 -19.008281,19.10617 -24.733182,22.90845 -5.724902,3.80228 5.661367,26.01533 2.120887,34.03815 -3.540479,8.02282 7.771194,3.54923 9.653661,10.51937 1.882466,6.97014 24.445736,4.44573 27.592246,7.81395 3.34872,4.11228 -7.469234,-12.14404 -9.980544,-18.77042 -2.027467,-5.3497 -5.724603,-8.95213 -4.010059,-16.68799 2.09127,-9.43563 9.454113,-18.04969 17.838433,-22.85673 2.67616,-1.53434 7.01134,0.97324 9.17259,-1.2279 3.09011,-3.14714 1.51554,-13.14468 1.51554,-13.14468 z"
       inkscape:path-effect="#path-effect3994" /><circle
       style="display:inline;stroke:none;stroke-opacity:1;fill:#f0792b;fill-opacity:1;stroke-width:2.89157;stroke-dasharray:none"
       id="path791-3-2"
       cx="101.34181"
       cy="149.78789"
       r="38.554214"
       inkscape:label="main"
       transform="translate(7.2916669e-7)" /><path
       style="display:inline;fill:#d21629;fill-opacity:1;fill-rule:evenodd;stroke:none;stroke-width:0;stroke-linejoin:round;stroke-dasharray:none"
       d="m 97.042108,134.37805 c -2.334963,1.87879 -3.803595,4.63226 -4.84764,7.44151 -1.044046,2.80924 -1.726548,5.74596 -2.842306,8.5275 -0.392233,0.97782 -0.84033,1.93977 -1.439811,2.80614 -0.599482,0.86638 -1.357839,1.63774 -2.277316,2.15208 -1.076683,0.60228 -2.343475,0.82957 -3.573415,0.73347 -1.229939,-0.0961 -2.423782,-0.50555 -3.504078,-1.10133 -2.160593,-1.19155 -3.837612,-3.08211 -5.428542,-4.96808 -1.007849,-1.19476 -1.999714,-2.40289 -2.998468,-3.60526 -0.629772,-0.75816 -1.271728,-1.52289 -2.074744,-2.09437 -0.401508,-0.28574 -0.841881,-0.52079 -1.312669,-0.66645 -0.470789,-0.14565 -0.972864,-0.20029 -1.460541,-0.12939 -0.818107,0.11894 -1.564246,0.5929 -2.084035,1.23575 -0.519789,0.64286 -0.822639,1.44445 -0.940317,2.26274 -0.235356,1.63658 0.242181,3.28349 0.735959,4.86145 1.822374,5.82374 3.951982,11.58389 6.94877,16.89956 2.996787,5.31566 6.897543,10.19461 11.831525,13.78527 7.581102,5.51708 17.459986,7.69742 26.69593,6.08227 9.23593,-1.61516 17.72881,-6.95764 23.34808,-14.46332 3.93398,-5.25463 6.4887,-11.52845 7.37165,-18.03289 0.88295,-6.50444 0.095,-13.2254 -2.24281,-19.35906 -3.78199,-9.92261 -11.70839,-18.19021 -21.4629,-22.3868 0.27248,2.45354 -0.0268,4.96876 -0.86731,7.28987 -0.97753,2.69936 -2.71475,5.15335 -5.0713,6.7931 -1.90151,1.32312 -4.12781,2.08146 -6.30892,2.86195 -2.1811,0.78049 -4.389959,1.62206 -6.194792,3.07429 z"
       id="path2"
       inkscape:path-effect="#path-effect3"
       inkscape:original-d="m 97.042108,134.37805 c -4.189154,4.16605 -4.621845,10.92008 -7.689946,15.96901 -1.072694,1.76525 -1.722058,4.42299 -3.717127,4.95822 -4.377477,1.17438 -8.871142,-2.62872 -12.506035,-5.33594 -1.253587,-0.93365 -1.810362,-2.58959 -2.998468,-3.60526 -1.430049,-1.2225 -3.102897,-3.5933 -4.847954,-2.89021 -2.679831,1.0797 -2.694468,5.49945 -2.288393,8.35994 1.68548,11.87289 7.869161,25.70953 18.780295,30.68483 15.389271,7.01726 38.26268,3.75452 50.04401,-8.38105 8.76317,-9.02666 9.01469,-25.42642 5.12884,-37.39195 -3.19307,-9.83228 -21.4629,-22.3868 -21.4629,-22.3868 0,0 0.04,5.01721 -0.86731,7.28987 -1.04774,2.62434 -2.88545,5.00229 -5.0713,6.7931 -3.56895,2.92395 -9.23227,2.68285 -12.503712,5.93624 z"
       sodipodi:nodetypes="aaaaaaaaaacaaa"
       inkscape:label="light-bot" /><path
       style="display:inline;fill:#991629;fill-opacity:1;fill-rule:evenodd;stroke:none;stroke-width:4;stroke-linejoin:round;stroke-opacity:1"
       d="m 105.90491,138.33802 c 2.77918,-1.54145 5.97713,-2.16116 8.84644,-3.52752 3.03475,-1.44515 5.69347,-3.77215 7.26556,-6.74313 1.41902,-2.6817 1.91158,-5.84272 1.37578,-8.82903 4.48283,2.84283 8.28483,6.75141 11.00266,11.3111 2.76506,4.63892 4.39866,9.92105 4.94348,15.29397 0.72287,7.12879 -0.47867,14.45925 -3.5498,20.93307 -3.07112,6.47382 -8.01604,12.06385 -14.13065,15.79931 -5.3905,3.2931 -11.64834,5.12964 -17.96079,5.36388 -6.312462,0.23424 -12.667076,-1.12515 -18.371528,-3.83831 -8.467658,-4.0274 -15.488589,-11.12747 -19.149618,-19.75985 -0.446918,-1.05379 -0.851265,-2.16544 -0.800721,-3.30897 0.05508,-1.24612 0.677672,-2.44958 1.641713,-3.24108 0.96404,-0.7915 2.250601,-1.16729 3.492731,-1.05345 1.540217,0.14116 2.927153,0.98479 4.141303,1.94294 1.21415,0.95814 2.326718,2.05732 3.652072,2.85458 1.570059,0.94447 3.401757,1.43012 5.233733,1.46119 1.831976,0.0311 3.661904,-0.38553 5.331893,-1.13935 3.659895,-1.65204 6.471483,-4.89311 8.060412,-8.58084 1.429969,-3.3188 1.960201,-7.03022 3.85575,-10.10693 1.24439,-2.01979 3.04497,-3.68091 5.11958,-4.83158 z"
       id="path3844"
       inkscape:path-effect="#path-effect3846"
       inkscape:original-d="m 105.90491,138.33802 c 2.67621,-1.70763 6.16312,-1.83108 8.84644,-3.52752 2.79283,-1.76569 5.71453,-3.82562 7.26556,-6.74313 1.39817,-2.62997 1.37578,-8.82903 1.37578,-8.82903 0,0 8.28887,6.80533 11.00266,11.3111 2.76424,4.58953 5.30744,9.94866 4.94348,15.29397 -0.92312,13.55727 -6.32955,29.26184 -17.68045,36.73238 -10.1253,6.66391 -25.073574,6.01668 -36.332318,1.52557 -8.51938,-3.39838 -14.723546,-11.72625 -19.149618,-19.75985 -0.547614,-0.99395 -1.155986,-2.23119 -0.800721,-3.30897 0.698503,-2.11908 2.909055,-4.13318 5.134444,-4.29453 3.042567,-0.22059 4.871186,3.92191 7.793375,4.79752 3.375242,1.01136 7.310875,1.67155 10.565626,0.32184 3.62497,-1.50323 5.978226,-5.25449 8.060412,-8.58084 1.913201,-3.05639 1.85144,-7.1095 3.85575,-10.10693 1.30431,-1.95059 3.14147,-3.5694 5.11958,-4.83158 z"
       inkscape:label="shadow-soft"
       sodipodi:nodetypes="aaacaaaaaaaaaaaa" /><path
       style="display:none;fill:#991629;fill-opacity:1;fill-rule:evenodd;stroke:none;stroke-width:0;stroke-linejoin:round;stroke-dasharray:none"
       d="m 65.551907,162.13626 c -0.505768,-0.79029 -1.08563,-1.56915 -1.282397,-2.48656 -0.101793,-0.4746 -0.0938,-0.97707 0.05844,-1.43797 0.152236,-0.4609 0.453531,-0.8773 0.863962,-1.13644 0.380324,-0.24013 0.835478,-0.33781 1.284599,-0.36229 0.449121,-0.0245 0.898711,0.0198 1.347962,0.0418 1.885465,0.0922 3.808644,-0.20613 5.644434,0.23359 1.406148,0.33681 2.676455,1.08947 3.863374,1.91525 2.110195,1.46814 4.038402,3.20123 6.251531,4.50906 1.249667,0.73848 2.59174,1.33873 4.008293,1.65559 1.530894,0.34243 3.159123,0.35967 4.574854,1.03539 0.917495,0.43792 1.705542,1.14673 2.22743,2.0192 0.521887,0.87246 0.773921,1.90586 0.700171,2.91983 -0.08639,1.18774 -0.610196,2.31582 -1.342577,3.25487 -0.732382,0.93905 -1.666516,1.70275 -2.648213,2.37689 -2.077391,1.42657 -4.426582,2.49236 -6.910288,2.9188 -2.483706,0.42644 -5.105339,0.19232 -7.399863,-0.8497 -2.137952,-0.97091 -3.933594,-2.61182 -5.28107,-4.53479 -2.580113,-3.68206 -3.537086,-8.28558 -5.960637,-12.07252 z"
       id="path3"
       inkscape:path-effect="#path-effect4"
       inkscape:original-d="m 65.551907,162.13626 c -1.619294,-3.55685 -0.763035,-1.59791 -1.282397,-2.48656 -0.519362,-0.88865 0.733972,-1.65924 0.922397,-2.57441 0.188424,-0.91517 1.653473,-0.21366 2.632561,-0.32049 0.979089,-0.10683 3.846313,0.23359 5.644434,0.23359 1.798121,0 2.632432,1.17311 3.863374,1.91525 2.200364,1.3266 4.007005,3.25863 6.251531,4.50906 1.262837,0.70353 2.630358,1.21855 4.008293,1.65559 1.490352,0.4727 3.310705,0.11533 4.574854,1.03539 1.54739,1.12621 3.445252,4.51979 2.927601,4.93903 -0.517651,0.41923 -3.395882,5.36945 -3.99079,5.63176 -1.060067,0.46742 -13.482659,2.35198 -14.310151,2.0691 -0.827492,-0.28288 -3.536542,-2.9084 -5.28107,-4.53479 -1.744528,-1.62638 -3.789965,-7.81469 -5.960637,-12.07252 z"
       inkscape:label="outer-shadow"
       sodipodi:nodetypes="cssssaaaassssc" /><path
       style="display:inline;fill:#5c1629;fill-opacity:1;fill-rule:evenodd;stroke:none;stroke-width:4;stroke-linejoin:round;stroke-opacity:1"
       d="m 133.69879,130.1646 c -0.38177,-0.57139 -0.80001,-1.14606 -1.38976,-1.49879 -0.29488,-0.17637 -0.63,-0.29222 -0.97337,-0.3047 -0.34336,-0.0125 -0.69462,0.0829 -0.96733,0.2919 -0.26968,0.2067 -0.45195,0.51607 -0.53351,0.84591 -0.0816,0.32985 -0.0666,0.67898 0.0109,1.00979 0.15508,0.66163 0.54725,1.23822 0.914,1.81032 2.80477,4.37524 4.51975,9.44691 4.92031,14.62852 0.40057,5.1816 -0.51664,10.46286 -2.66423,15.19544 -3.8162,8.40964 -11.32055,14.73466 -19.64726,18.72857 -0.64326,0.30854 -1.30608,0.61417 -1.81575,1.11339 -0.25483,0.24961 -0.46748,0.54681 -0.5923,0.88097 -0.12483,0.33417 -0.15848,0.70657 -0.0655,1.05096 0.10425,0.38616 0.36455,0.72163 0.69388,0.94862 0.32933,0.22699 0.72401,0.34959 1.12235,0.38579 0.79668,0.0724 1.58317,-0.18835 2.3311,-0.47214 9.65665,-3.66407 17.28911,-11.85483 21.15329,-21.43316 2.15911,-5.35189 3.22139,-11.16966 2.86424,-16.9296 -0.35715,-5.75994 -2.15497,-11.4533 -5.36105,-16.25179 z"
       id="path3918"
       inkscape:path-effect="#path-effect3920"
       inkscape:original-d="m 133.69879,130.1646 c -0.69833,-0.99933 -2.34217,-2.22545 -3.33046,-1.51159 -0.99624,0.7196 0.27979,2.44214 0.39139,3.66602 0.9053,9.92853 5.83259,20.51783 2.25608,29.82396 -3.24581,8.44562 -13.50809,12.0822 -19.64726,18.72857 -0.88736,0.96067 -2.91193,1.81321 -2.47356,3.04532 0.47331,1.33032 2.7957,1.27076 4.14733,0.86227 9.60872,-2.90393 17.69377,-12.01021 21.15329,-21.43316 3.82271,-10.41218 3.85653,-24.08955 -2.49681,-33.18139 z"
       sodipodi:nodetypes="aaaaaaaaa"
       inkscape:label="shadow-hard" /><path
       style="display:inline;fill:#f09b2b;fill-opacity:1;fill-rule:evenodd;stroke:none;stroke-width:4;stroke-linejoin:round;stroke-opacity:1"
       d="m 104.87945,111.83946 c -1.08367,0.0283 -2.15351,-0.22609 -3.20009,-0.50859 -1.04658,-0.2825 -2.09309,-0.59637 -3.172932,-0.69162 -1.683155,-0.14847 -3.37448,0.24294 -4.956115,0.83748 -1.581635,0.59455 -3.078478,1.39032 -4.614972,2.09334 -2.610813,1.19457 -5.342447,2.1241 -7.893065,3.44232 -2.936084,1.51744 -5.606744,3.54315 -7.874136,5.94776 -3.119641,3.30843 -5.458585,7.31296 -7.057039,11.57005 -1.379488,3.67393 -2.218044,7.53623 -2.705435,11.43022 -0.267775,2.13938 -0.430913,4.29716 -0.347497,6.45162 0.132813,3.43029 0.892967,6.82394 2.105462,10.03554 0.939672,2.48896 2.14631,4.86665 3.270931,7.2777 0.405877,0.87015 0.804041,1.75007 1.345486,2.543 0.541445,0.79292 1.240804,1.50303 2.111295,1.90817 0.853107,0.39705 1.825759,0.48002 2.762218,0.38791 0.426475,-0.0419 0.853663,-0.12006 1.247282,-0.28949 0.393618,-0.16942 0.753884,-0.43592 0.983697,-0.79762 0.268617,-0.42277 0.341537,-0.94812 0.286308,-1.44596 -0.05523,-0.49784 -0.229878,-0.97442 -0.426082,-1.43528 -0.699873,-1.64393 -1.684654,-3.14743 -2.58167,-4.69265 -1.699647,-2.92785 -3.104403,-6.05624 -3.82278,-9.36457 -0.730457,-3.36396 -0.736161,-6.87379 -0.111415,-10.25898 0.842114,-4.563 2.811152,-8.867 5.339518,-12.75769 2.663888,-4.09923 5.949782,-7.77203 9.54561,-11.08413 1.201489,-1.10669 2.446391,-2.18041 3.844464,-3.02524 1.398072,-0.84482 2.963815,-1.45696 4.593327,-1.57109 1.155614,-0.0809 2.31201,0.0885 3.468159,0.16138 1.156148,0.0729 2.352843,0.0422 3.418211,-0.41276 1.07484,-0.459 1.95464,-1.3245 3.06851,-1.67844 0.59006,-0.1875 1.21695,-0.22116 1.83597,-0.23322 0.61901,-0.0121 1.24231,-0.004 1.85174,-0.11344 0.60943,-0.10918 1.21377,-0.3461 1.65346,-0.78199 0.21985,-0.21794 0.39475,-0.48364 0.4923,-0.77743 0.0976,-0.29379 0.11587,-0.61582 0.0363,-0.91498 -0.1092,-0.41045 -0.39853,-0.75995 -0.75557,-0.98999 -0.35704,-0.23004 -0.77776,-0.34771 -1.20022,-0.39155 -0.84492,-0.0877 -1.69204,0.10805 -2.54121,0.13022 z"
       id="path3997-1"
       inkscape:path-effect="#path-effect3999-9"
       inkscape:original-d="m 104.87945,111.83946 c 0.43095,-0.43212 -3.18454,-0.63761 -6.373022,-1.20021 -3.188477,-0.5626 -6.380461,1.95415 -9.571087,2.93082 -3.190626,0.97668 -5.261779,2.29514 -7.893065,3.44232 -2.631287,1.14717 -5.249159,3.96544 -7.874136,5.94776 -2.624977,1.98233 -4.704428,7.71363 -7.057039,11.57005 -2.352611,3.85642 -1.803359,7.62041 -2.705435,11.43022 -0.902076,3.80981 -0.2314,4.30135 -0.347497,6.45162 -0.116096,2.15028 1.403906,6.69062 2.105462,10.03554 0.701555,3.34491 2.180885,4.85206 3.270931,7.2777 1.090046,2.42564 2.053986,2.4921 3.456781,4.45117 1.402795,1.95907 1.749718,0.42317 2.762218,0.38791 1.012499,-0.0352 1.564112,-0.61296 2.230979,-1.08711 0.666867,-0.47414 -0.09117,-1.89576 -0.139774,-2.88124 -0.04861,-0.98548 -1.456308,-2.95313 -2.58167,-4.69265 -1.125362,-1.73953 -3.155542,-6.05966 -3.82278,-9.36457 -0.676789,-3.35223 -0.766554,-6.90246 -0.111415,-10.25898 0.883132,-4.52462 2.915523,-8.83642 5.339518,-12.75769 2.563848,-4.14751 6.364005,-7.38916 9.54561,-11.08413 3.181605,-3.69497 5.625458,-3.06395 8.437791,-4.59633 2.812333,-1.53237 4.591177,-0.16732 6.88637,-0.25138 2.29519,-0.0841 2.04594,-1.1187 3.06851,-1.67844 1.02258,-0.55975 4.77979,-2.05746 5.86975,-2.82106 1.08997,-0.76361 -4.92796,-0.8192 -4.497,-1.25132 z"
       sodipodi:nodetypes="sscccsssssscsssaaasccsss"
       inkscape:label="outer-light"
       transform="translate(2.2167309e-4,1.9957379e-4)" /><path
       style="display:inline;fill:#f0792b;fill-opacity:1;fill-rule:evenodd;stroke:none;stroke-width:4;stroke-linejoin:round;stroke-opacity:1"
       d="m 63.250999,148.19192 c -0.06063,3.43668 0.279386,6.88025 1.010959,10.23871 0.857089,3.93467 2.253604,7.75436 4.172604,11.29465 0.948443,1.74975 2.081728,3.4899 3.774898,4.536 0.878161,0.54256 1.909268,0.87987 2.938441,0.80022 0.424547,-0.0329 0.846509,-0.13719 1.223822,-0.33456 0.377312,-0.19737 0.708675,-0.49043 0.924541,-0.85747 0.27046,-0.45987 0.348404,-1.01517 0.295133,-1.54601 -0.05327,-0.53084 -0.230378,-1.04185 -0.441901,-1.53163 -0.758165,-1.75554 -1.956541,-3.27722 -2.9864,-4.88847 -1.82598,-2.8568 -3.140729,-6.04337 -3.82278,-9.36457 -0.692188,-3.37055 -0.730238,-6.87419 -0.111415,-10.25898 -1.035941,-1.33543 -2.520996,-2.31604 -4.155976,-2.74427 -0.769573,-0.20157 -1.603155,-0.27977 -2.34899,-0.003 -0.454267,0.16857 -0.859677,0.4666 -1.156104,0.84988 -0.296428,0.38329 -0.482935,0.85061 -0.531861,1.33267 -0.04893,0.48206 0.03988,0.97733 0.253257,1.41235 0.213374,0.43503 0.550638,0.80843 0.961772,1.06484 z"
       id="path3997"
       inkscape:path-effect="#path-effect3999"
       inkscape:original-d="m 63.250999,148.19192 c -0.217442,2.14241 0.309403,6.89379 1.010959,10.23871 0.701555,3.34491 3.082558,8.86901 4.172604,11.29465 1.090046,2.42564 2.372103,2.57693 3.774898,4.536 1.402795,1.95907 1.925941,0.83548 2.938441,0.80022 1.012499,-0.0352 1.481496,-0.71788 2.148363,-1.19203 0.666867,-0.47414 -0.09816,-2.09216 -0.146768,-3.07764 -0.04861,-0.98548 -1.861038,-3.14895 -2.9864,-4.88847 -1.125362,-1.73953 -3.155542,-6.05966 -3.82278,-9.36457 -0.676789,-3.35223 -0.111415,-10.25898 -0.111415,-10.25898 0,0 -2.566401,-2.26556 -4.155976,-2.74427 -0.749738,-0.22578 -1.767671,-0.52791 -2.34899,-0.003 -1.159097,1.04591 -0.472936,4.65974 -0.472936,4.65974 z"
       sodipodi:nodetypes="sssscsssacaas"
       inkscape:label="outer-light-orange" /><path
       style="display:inline;fill:#d21629;fill-opacity:1;fill-rule:evenodd;stroke:none;stroke-width:4;stroke-linejoin:round;stroke-opacity:1"
       d="m 67.643028,157.79189 c -0.749553,0.52425 -1.382068,1.21852 -1.817648,2.02285 -0.435581,0.80432 -0.671895,1.7182 -0.661749,2.63284 0.01493,1.34573 0.551669,2.63347 1.212953,3.80561 0.661285,1.17214 1.455111,2.26886 2.057978,3.47209 0.556523,1.11073 0.945313,2.30259 1.550764,3.38743 0.302725,0.54242 0.660649,1.05797 1.101812,1.49528 0.441163,0.43731 0.968531,0.79521 1.556602,0.99529 0.976053,0.33209 2.056763,0.21067 3.038293,-0.10486 0.399439,-0.12841 0.791451,-0.28937 1.14229,-0.51948 0.350839,-0.23012 0.660309,-0.53267 0.859104,-0.90216 0.241668,-0.44917 0.308881,-0.97784 0.259052,-1.48546 -0.04983,-0.50762 -0.210927,-0.99811 -0.40409,-1.47018 -0.759918,-1.85716 -2.011055,-3.46233 -3.090869,-5.15363 -1.815014,-2.84284 -3.168181,-5.97984 -3.990448,-9.25091 -1.007055,0.12108 -1.982862,0.49395 -2.814044,1.07529 z"
       id="path3997-7"
       inkscape:path-effect="#path-effect3999-2"
       inkscape:original-d="m 67.643028,157.79189 c -0.116096,2.15028 -3.180953,1.31077 -2.479397,4.65569 0.701555,3.34491 2.180885,4.85206 3.270931,7.2777 1.090046,2.42564 2.047046,4.81369 4.209178,5.878 0.909185,0.44754 2.025792,-0.0696 3.038293,-0.10486 1.012498,-0.0352 1.643933,-0.68554 2.001394,-1.42164 0.430888,-0.88731 -0.09643,-1.97016 -0.145038,-2.95564 -0.04861,-0.98548 -1.965507,-3.41411 -3.090869,-5.15363 -1.125362,-1.73953 -3.990448,-9.25091 -3.990448,-9.25091 0,0 -1.220036,-25.50261 -2.814044,1.07529 z"
       sodipodi:nodetypes="sssasasscs"
       inkscape:label="outer-light-red"
       transform="translate(-1.0915432e-4,8e-5)" /><path
       style="display:inline;fill:#f09b2b;fill-rule:evenodd;stroke-width:4;stroke-linejoin:round"
       d="m 87.507496,119.8723 c 0.356335,0.0381 0.715655,-0.003 1.073696,-0.0178 0.358042,-0.0152 0.726757,-0.003 1.057955,0.13404 0.334053,0.13804 0.610924,0.39874 0.794358,0.71019 0.183435,0.31145 0.276507,0.67142 0.296825,1.0323 0.04064,0.72176 -0.200444,1.42802 -0.471231,2.09829 -0.407478,1.00862 -0.895922,1.99593 -1.580742,2.84114 -1.187718,1.46588 -2.90048,2.42843 -4.11911,3.86872 -0.999758,1.18161 -1.633666,2.6685 -1.79399,4.20798 0.16944,0.64147 0.659594,1.18956 1.278228,1.42933 0.618634,0.23976 1.350132,0.16513 1.907607,-0.19461 0.569552,-0.36754 0.928907,-0.98638 1.177062,-1.61716 0.248155,-0.63079 0.407002,-1.29607 0.691126,-1.91149 0.3618,-0.78367 0.919288,-1.46647 1.561163,-2.04356 0.641875,-0.5771 1.368139,-1.05301 2.113724,-1.48791 1.11774,-0.65199 2.284105,-1.21628 3.41918,-1.8376 1.120441,-0.61331 2.219386,-1.28632 3.42687,-1.70287 1.303236,-0.44958 2.692913,-0.58635 4.021773,-0.95334 0.55471,-0.15319 1.10092,-0.34762 1.60482,-0.62558 0.50391,-0.27795 0.96575,-0.64213 1.31468,-1.09976 0.67145,-0.88064 0.87557,-2.03402 0.8913,-3.14133 0.008,-0.57077 -0.0281,-1.14176 -0.009,-1.71228 0.0188,-0.57051 0.095,-1.14715 0.3173,-1.6729 0.21188,-0.50104 0.54809,-0.93747 0.8325,-1.4012 0.28442,-0.46372 0.52415,-0.98273 0.50718,-1.52646 -0.01,-0.31976 -0.11046,-0.63464 -0.27694,-0.90782 -0.16649,-0.27318 -0.3978,-0.50497 -0.6638,-0.68271 -0.53199,-0.35548 -1.19033,-0.48898 -1.82978,-0.4668 -1.27889,0.0444 -2.45517,0.66625 -3.677,1.04659 -2.361763,0.73518 -4.893027,0.56506 -7.36612,0.61218 -1.236546,0.0236 -2.478544,0.10421 -3.683883,0.38126 -1.205339,0.27706 -2.378189,0.75789 -3.351442,1.52103 -0.497665,0.39023 -0.944411,0.85828 -1.240342,1.41718 -0.29593,0.5589 -0.432685,1.21496 -0.305864,1.83453 0.100014,0.4886 0.363327,0.94164 0.735493,1.27364 0.372166,0.332 0.850795,0.54178 1.346704,0.59476 z"
       id="path1"
       inkscape:path-effect="#path-effect1"
       inkscape:original-d="m 87.507496,119.8723 c 0.130447,0.73634 3.599387,-1.53469 2.131651,0.11626 -1.467734,1.65095 0.798482,2.63295 0.619952,3.84078 -0.178533,1.20783 -0.990639,1.02675 -1.580742,2.84114 -0.590103,1.81439 -3.021814,1.57531 -4.11911,3.86872 -1.097296,2.29341 -3.606919,3.97451 -1.79399,4.20798 2.07966,0.76322 2.11876,1.6328 3.185835,1.23472 1.246947,-0.46519 1.356238,-2.46961 1.868188,-3.52865 0.511948,-1.05904 2.732766,-2.0842 3.674887,-3.53147 0.94212,-1.44727 2.545859,-1.2394 3.41918,-1.8376 0.873318,-0.59821 3.159922,-1.39249 3.42687,-1.70287 0.266949,-0.31038 1.785803,-0.48389 4.021773,-0.95334 2.23598,-0.46945 1.97979,-1.23033 2.9195,-1.72534 0.9397,-0.49501 0.50254,-1.97647 0.8913,-3.14133 0.38875,-1.16486 0.20533,-2.30944 0.308,-3.38518 0.10267,-1.07574 1.00275,-1.92354 1.33968,-2.92766 0.33692,-1.00413 -4.97691,-0.64903 -6.44752,-1.01074 -1.470613,-0.3617 -12.983379,2.43782 -14.401445,2.51447 -1.418066,0.0767 -0.920778,2.78264 -1.546206,3.25171 -0.62543,0.46907 1.820479,0.39105 2.082197,1.8684 z"
       inkscape:label="top-light"
       sodipodi:nodetypes="ssssscasscssscscccss" /><path
       style="display:inline;opacity:1;fill:#ffffff;fill-opacity:1;fill-rule:evenodd;stroke:none;stroke-width:2.74701;stroke-dasharray:none;stroke-opacity:1"
       d="m 89.5444,123.05798 c -0.03233,0.7628 -0.312019,1.50213 -0.723373,2.14532 -0.411355,0.6432 -0.950842,1.19602 -1.530563,1.69284 -1.159444,0.99365 -2.496814,1.78523 -3.536116,2.90393 -0.981848,1.05686 -1.653048,2.35756 -2.469856,3.54659 -0.408403,0.59452 -0.857288,1.16574 -1.389426,1.65264 -0.532137,0.4869 -1.151471,0.88874 -1.837841,1.11042 -0.680432,0.21976 -1.41727,0.257 -2.118939,0.11937 -0.70167,-0.13763 -1.367177,-0.44869 -1.93074,-0.88878 -1.127125,-0.88018 -1.816033,-2.26952 -1.929639,-3.69508 -0.12685,-1.59176 0.427082,-3.17897 1.270054,-4.53513 0.842973,-1.35617 1.96433,-2.51373 3.0847,-3.65152 1.075139,-1.09185 2.16521,-2.18246 3.420869,-3.06074 1.255659,-0.87829 2.697259,-1.54152 4.223407,-1.67913 1.312401,-0.11834 2.684973,0.17589 3.74801,0.95457 0.531519,0.38935 0.979961,0.89531 1.284481,1.47958 0.304519,0.58426 0.462871,1.24685 0.434972,1.90512 z"
       id="path11860"
       inkscape:path-effect="#path-effect11862"
       inkscape:original-d="m 89.5444,123.05798 c 1.226611,1.62162 -3.003188,5.11365 -5.790052,6.74209 -2.786867,1.62842 -3.971315,3.11441 -5.697123,6.30965 -1.725808,3.19525 -3.96345,-0.83463 -5.979318,-4.46449 -0.946464,-1.70424 2.223879,-4.95825 4.354754,-8.18665 2.130874,-3.2284 3.869687,-4.60657 7.644276,-4.73987 5.237841,-0.18498 4.240852,2.71765 5.467463,4.33927 z"
       sodipodi:nodetypes="sssssss"
       inkscape:label="light-hard" /><path
       style="display:inline;fill:#ffffff;fill-opacity:1;fill-rule:evenodd;stroke:none;stroke-width:0;stroke-dasharray:none;stroke-opacity:1"
       d="m 70.82677,136.53001 c 0.419547,0.18633 0.772585,0.49255 1.115176,0.79811 0.342592,0.30557 0.687344,0.61891 1.098021,0.82405 0.488453,0.24399 1.040093,0.32045 1.574809,0.43089 0.534717,0.11044 1.083538,0.2695 1.486796,0.63761 0.382082,0.34878 0.595914,0.86747 0.596628,1.3848 8.2e-4,0.59443 -0.271551,1.17424 -0.694243,1.5922 -0.422692,0.41795 -0.986096,0.67946 -1.570773,0.78673 -0.584676,0.10727 -1.190192,0.066 -1.769941,-0.0653 -0.579749,-0.13132 -1.136092,-0.35095 -1.675704,-0.60029 -0.551126,-0.25466 -1.090025,-0.54276 -1.574072,-0.90922 -0.484048,-0.36646 -0.913377,-0.81448 -1.20882,-1.34487 -0.295444,-0.53038 -0.451775,-1.14668 -0.387708,-1.75041 0.06407,-0.60373 0.359771,-1.19013 0.842455,-1.55838 0.302992,-0.23116 0.672454,-0.37258 1.051739,-0.40977 0.379284,-0.0372 0.767338,0.0291 1.115637,0.18384 z"
       id="path71250"
       inkscape:path-effect="#path-effect71252"
       inkscape:original-d="m 70.82677,136.53001 c 1.490162,-0.77591 1.305585,1.12632 2.213197,1.62216 1.035136,0.5655 2.649218,0.24847 3.061605,1.0685 0.412388,0.82003 1.668753,0.65413 0.596628,1.3848 -3.342166,2.27774 -4.875493,1.85461 -5.710661,1.71335 -0.835168,-0.14126 -1.88596,-4.74548 -2.328145,-5.56288 -0.442184,-0.81739 0.677215,0.54998 2.167376,-0.22593 z"
       sodipodi:nodetypes="sssssss"
       inkscape:label="light-hard-2" /><path
       style="display:inline;fill:#ffffff;fill-opacity:1;fill-rule:evenodd;stroke:none;stroke-width:0;stroke-dasharray:none;stroke-opacity:1"
       d="m 92.997043,118.28637 c 0.215445,0.28366 0.326109,0.64511 0.306406,1.00077 -0.0197,0.35566 -0.169616,0.70268 -0.415077,0.96081 -0.24546,0.25813 -0.584494,0.4253 -0.938713,0.46287 -0.354219,0.0376 -0.720776,-0.0548 -1.014917,-0.25569 -0.260852,-0.17817 -0.458857,-0.43232 -0.647751,-0.68552 -0.188895,-0.25319 -0.376414,-0.51315 -0.623755,-0.70965 -0.296026,-0.23517 -0.659231,-0.36514 -0.999956,-0.52898 -0.170363,-0.0819 -0.337152,-0.17359 -0.485822,-0.29034 -0.14867,-0.11676 -0.279256,-0.2598 -0.36456,-0.42849 -0.08536,-0.1688 -0.123277,-0.36042 -0.114876,-0.54939 0.0084,-0.18896 0.06253,-0.37505 0.151286,-0.54209 0.177506,-0.33408 0.489592,-0.58504 0.837979,-0.7325 0.506209,-0.21425 1.086979,-0.21917 1.616572,-0.0719 0.529593,0.14726 1.010907,0.4393 1.430276,0.79466 0.516663,0.43781 0.948015,0.97591 1.262908,1.57546 z"
       id="path70652"
       inkscape:path-effect="#path-effect70654"
       inkscape:original-d="m 92.997043,118.28637 c -0.728137,0.74403 -3.143928,1.1337 -2.062301,2.16876 0.752355,0.71996 -0.332809,-0.64299 -1.271506,-1.39517 -0.938695,-0.75219 -2.174028,-0.20967 -1.850338,-1.24781 0.323689,-1.03813 -0.226297,-1.41026 0.874389,-1.82398 1.100689,-0.41372 2.389268,0.0806 3.046848,0.72274 0.657577,0.64217 1.677462,0.75623 1.262908,1.57546 z"
       sodipodi:nodetypes="cssssscc"
       inkscape:label="light-hard-3" /></g><g
     id="layer2-7"
     inkscape:label="face"
     style="display:inline"
     transform="translate(-63.343825,-111.08918)"><circle
       id="path4091-3"
       style="display:inline;fill:#f4e451;fill-opacity:1;stroke:#000000;stroke-width:2;stroke-dasharray:none;stroke-opacity:1"
       cx="84.490883"
       cy="150.93719"
       inkscape:label="eye1"
       r="4.9999995" /><circle
       id="path4093-6"
       style="display:inline;fill:#f4e451;fill-opacity:1;stroke:#000000;stroke-width:2;stroke-dasharray:none;stroke-opacity:1"
       cx="116.49088"
       cy="150.93719"
       inkscape:label="eye2"
       r="4.9999995" /><g
       inkscape:groupmode="layer"
       id="layer6-1"
       inkscape:label="mouth"
       transform="translate(56.551418,43.72045)"><g
         inkscape:groupmode="layer"
         id="g4552-2"
         inkscape:label="mouthIn"
         style="display:inline;fill:#f4e451;fill-opacity:1"><rect
           style="display:inline;fill:#f4e451;fill-opacity:1;fill-rule:evenodd;stroke:#000000;stroke-width:4;stroke-linejoin:round;stroke-dasharray:none;stroke-opacity:1;paint-order:normal"
           id="rect4544-3"
           width="8"
           height="4"
           x="44.339264"
           y="-116.43813"
           transform="rotate(135)"
           inkscape:label="right-outline" /><rect
           style="display:inline;fill:#f4e451;fill-opacity:1;fill-rule:evenodd;stroke:#000000;stroke-width:4;stroke-linejoin:round;stroke-dasharray:none;stroke-opacity:1;paint-order:normal"
           id="rect4542-6"
           width="8"
           height="4"
           x="106.54491"
           y="50.3825"
           transform="rotate(45)"
           inkscape:label="left-outline" /><circle
           id="ellipse4546-9"
           style="display:inline;fill:#f4e451;fill-opacity:1;stroke:#000003;stroke-width:2;stroke-dasharray:none;stroke-opacity:1;paint-order:normal"
           cx="43.890392"
           cy="117.96744"
           inkscape:label="bot"
           r="2.9999993" /><circle
           id="ellipse4548-3"
           style="display:inline;fill:#f4e451;fill-opacity:1;stroke:#000000;stroke-width:2;stroke-dasharray:none;stroke-opacity:1;paint-order:normal"
           cx="49.546394"
           cy="112.31144"
           inkscape:label="right"
           r="2.9999993" /><circle
           id="ellipse4550-1"
           style="display:inline;fill:#f4e451;fill-opacity:1;stroke:#000000;stroke-width:2;stroke-dasharray:none;stroke-opacity:1;paint-order:normal"
           cx="38.234394"
           cy="112.31144"
           inkscape:label="left"
           r="2.9999995" /><rect
           style="display:inline;fill:#f4e451;fill-opacity:1;fill-rule:evenodd;stroke:#f68e55;stroke-width:0;stroke-linejoin:round;stroke-dasharray:none;stroke-opacity:1;paint-order:normal"
           id="rect4544-9"
           width="8"
           height="4"
           x="44.339516"
           y="-116.43843"
           transform="rotate(135)"
           inkscape:label="right" /><rect
           style="display:inline;fill:#f4e451;fill-opacity:1;fill-rule:evenodd;stroke:#f68e55;stroke-width:0;stroke-dasharray:none;stroke-opacity:1;paint-order:normal"
           id="rect4542-4"
           width="8"
           height="4"
           x="106.54482"
           y="50.382168"
           transform="rotate(45)"
           inkscape:label="left" /></g></g></g><g
     inkscape:groupmode="layer"
     id="layer3"
     inkscape:label="outline"
     style="display:inline;stroke:#000000;stroke-opacity:1"
     transform="translate(-61.341813,-109.78789)"><circle
       style="display:inline;fill:none;fill-opacity:1;stroke:#000000;stroke-width:2.89157;stroke-dasharray:none;stroke-opacity:1"
       id="path791-3"
       cx="101.34181"
       cy="149.78812"
       inkscape:label="outline"
       r="38.554214" /></g><g
     inkscape:groupmode="layer"
     id="layer7"
     inkscape:label="stem"
     transform="rotate(8.3149729,790.33822,-377.83617)"
     style="display:inline"><path
       style="fill:#552200;fill-opacity:1;fill-rule:evenodd;stroke:#000000;stroke-width:2;stroke-dasharray:none;stroke-opacity:1;paint-order:normal"
       d="m 99.333177,118.06838 -3.140599,-6.9863 c -0.336068,-0.78556 -0.349986,-1.70342 -0.03789,-2.49881 0.264591,-0.67432 0.760694,-1.25794 1.391278,-1.61442 0.630583,-0.35648 1.392172,-0.48033 2.100164,-0.32716 0.52016,0.11254 1.00817,0.37974 1.36954,0.77043 0.36136,0.3907 0.57515,0.89197 0.75972,1.39113 l 1.98502,5.36854 z"
       id="path5173"
       inkscape:path-effect="#path-effect5175"
       inkscape:original-d="m 99.333177,118.06838 -3.140599,-6.9863 c 0,0 -0.025,-1.66561 -0.03789,-2.49881 -0.01289,-0.8332 2.327892,-1.29413 3.491442,-1.94158 1.16355,-0.64746 2.12926,2.16156 2.12926,2.16156 l 1.98502,5.36854 z"
       sodipodi:nodetypes="ccssccc"
       inkscape:label="stem" /></g><g
     inkscape:groupmode="layer"
     id="layer4"
     inkscape:label="volume"
     style="display:inline;fill:none;fill-opacity:1"
     transform="translate(-61.341813,-109.78789)"><path
       style="display:inline;opacity:1;fill:none;fill-opacity:1;stroke:#000000;stroke-width:3;stroke-opacity:1"
       d="m 117.67946,114.84074 c -8.8624,-5.30764 -18.294023,7.36436 -23.540298,9.29893"
       id="path5723"
       sodipodi:nodetypes="cc"
       inkscape:label="line" /><circle
       id="path6953"
       style="display:inline;fill:#000000;fill-opacity:1;stroke:#9c3838;stroke-width:0;stroke-dasharray:none;stroke-opacity:1"
       cx="94.288742"
       cy="124.08215"
       inkscape:label="dot"
       r="1.4999995" /></g></svg>
